<?xml version="1.0" encoding="UTF-8"?>
<svg width="50px" height="50px" viewBox="0 0 50 50" xmlns="http://www.w3.org/2000/svg">
  <g fill="#FFFFFF">
    <path d="M25,5 C14.5066,5 6,13.5066 6,24 C6,34.4934 14.5066,43 25,43 C35.4934,43 44,34.4934 44,24 C44,13.5066 35.4934,5 25,5 Z M25,39 C16.7157,39 10,32.2843 10,24 C10,15.7157 16.7157,9 25,9 C33.2843,9 40,15.7157 40,24 C40,32.2843 33.2843,39 25,39 Z"/>
    <path d="M25,15 C20.0294,15 16,19.0294 16,24 C16,28.9706 20.0294,33 25,33 C29.9706,33 34,28.9706 34,24 C34,19.0294 29.9706,15 25,15 Z M25,29 C22.2386,29 20,26.7614 20,24 C20,21.2386 22.2386,19 25,19 C27.7614,19 30,21.2386 30,24 C30,26.7614 27.7614,29 25,29 Z"/>
    <line x1="25" y1="0" x2="25" y2="10" stroke="#FFFFFF" stroke-width="2" />
    <line x1="25" y1="38" x2="25" y2="48" stroke="#FFFFFF" stroke-width="2" />
    <line x1="0" y1="24" x2="10" y2="24" stroke="#FFFFFF" stroke-width="2" />
    <line x1="40" y1="24" x2="50" y2="24" stroke="#FFFFFF" stroke-width="2" />
  </g>
</svg>
